<svg width="24" height="24" viewBox="0 0 24 24" fill="none" xmlns="http://www.w3.org/2000/svg">
<g id="Icon">
<path id="Icon_2" d="M20 4H21C21 3.73478 20.8946 3.48043 20.7071 3.29289C20.5196 3.10536 20.2652 3 20 3V4ZM19 16C19 16.2652 19.1054 16.5196 19.2929 16.7071C19.4804 16.8946 19.7348 17 20 17C20.2652 17 20.5196 16.8946 20.7071 16.7071C20.8946 16.5196 21 16.2652 21 16H19ZM8 3C7.73478 3 7.48043 3.10536 7.29289 3.29289C7.10535 3.48043 7 3.73478 7 4C7 4.26522 7.10535 4.51957 7.29289 4.70711C7.48043 4.89464 7.73478 5 8 5V3ZM3.293 19.293C3.19749 19.3852 3.1213 19.4956 3.0689 19.6176C3.01649 19.7396 2.9889 19.8708 2.98775 20.0036C2.98659 20.1364 3.01189 20.2681 3.06218 20.391C3.11246 20.5138 3.18671 20.6255 3.2806 20.7194C3.3745 20.8133 3.48615 20.8875 3.60904 20.9378C3.73194 20.9881 3.86362 21.0134 3.9964 21.0123C4.12918 21.0111 4.2604 20.9835 4.3824 20.9311C4.50441 20.8787 4.61475 20.8025 4.707 20.707L3.293 19.293ZM19 4V16H21V4H19ZM20 3H8V5H20V3ZM19.293 3.293L3.293 19.293L4.707 20.707L20.707 4.707L19.293 3.293V3.293Z" fill="#BE185D"/>
</g>
</svg>
