<svg width="24" height="24" viewBox="0 0 24 24" fill="none" xmlns="http://www.w3.org/2000/svg">
<g id="Ruby">
<path id="Vector" d="M2.77105 12.2181C2.89598 11.8272 3.04456 11.0303 3.39095 10.33C5.07649 6.92863 7.68384 4.45473 11.1657 2.95185C11.8376 2.66225 12.6373 2.5695 13.3793 2.56571C14.3068 2.56098 14.9286 3.20643 15.0099 4.14242C15.0525 4.62982 15.0469 5.17116 14.8793 5.61976C13.2298 10.0319 10.117 12.9866 5.74087 14.6466C5.57052 14.7109 5.38029 14.7279 5.19669 14.7526C3.70705 14.957 2.74834 14.1128 2.77105 12.2181ZM14.2235 8.94826C16.6425 8.77885 19.0208 8.61229 21.5127 8.4372C21.331 8.26401 21.2288 8.15044 21.1105 8.0558C18.9413 6.31631 16.7665 4.58439 14.6058 2.83449C14.3919 2.6613 14.2594 2.38874 13.9736 2.01017C14.9021 2.01017 15.6526 2.00166 16.4031 2.01207C17.3088 2.02532 18.2362 1.9373 19.1164 2.10008C21.0196 2.45214 22.0351 3.67963 21.9991 5.61408C21.966 7.42739 21.7786 9.23786 21.6442 11.0483C21.4389 13.8203 21.2231 16.5924 21.0092 19.3634C20.9723 19.8414 20.9278 20.3193 20.8795 20.8871C19.8735 19.9909 18.911 19.1344 17.9504 18.277C17.8264 18.1662 17.7233 18.0233 17.5861 17.9353C16.4116 17.1876 15.9213 16.0728 15.6544 14.7402C15.3062 12.9989 14.7961 11.2897 14.3569 9.56626C14.3077 9.37319 14.2718 9.17634 14.2225 8.94637L14.2235 8.94826ZM5.15315 19.5499C5.67083 19.4779 6.15539 19.4477 6.61724 19.3284C6.79895 19.282 7.00999 19.0606 7.06867 18.8751C7.50402 17.4981 7.9034 16.1087 8.31509 14.7251C8.35105 14.604 8.40121 14.4866 8.46746 14.3059C10.9868 15.1122 13.4862 15.9128 16.0595 16.7362C14.7203 18.0877 13.296 19.2205 11.7042 20.2389C14.5405 20.4556 17.3769 20.6723 20.2133 20.889C20.2133 20.925 20.2133 20.9619 20.2142 20.9979C19.6028 21.0414 18.9915 21.0868 18.3801 21.1275C14.7724 21.3651 11.1657 21.6017 7.55796 21.8373C6.98444 21.8752 6.40998 21.9376 5.8374 21.9272C3.40893 21.8828 2.03286 20.5521 2.00163 18.1161C1.98365 16.7476 2.12466 15.3772 2.21173 14.0087C2.21835 13.9055 2.36599 13.8109 2.44833 13.7125C2.57042 13.8213 2.74834 13.9065 2.80796 14.0428C3.53291 15.7236 4.24082 17.4119 4.95346 19.0975C5.01119 19.2328 5.07271 19.3663 5.15315 19.5499Z" fill="#EB5757"/>
</g>
</svg>
