<svg width="24" height="24" viewBox="0 0 24 24" fill="none" xmlns="http://www.w3.org/2000/svg">
<g id="terminal-solid 1" clip-path="url(#clip0_13098_562)">
<path id="Vector" d="M9.67429 12.8242L2.38642 20.1121C2.03493 20.4636 1.46508 20.4636 1.11363 20.1121L0.263577 19.2621C-0.0873113 18.9112 -0.0879863 18.3425 0.262077 17.9908L6.03791 12.1878L0.262114 6.38488C-0.0879488 6.03317 -0.0872738 5.46448 0.263614 5.1136L1.11363 4.26358C1.46512 3.9121 2.03497 3.9121 2.38642 4.26358L9.67429 11.5514C10.0258 11.9029 10.0258 12.4727 9.67429 12.8242ZM24 19.6878V18.4878C24 17.9908 23.5971 17.5878 23.1 17.5878H11.7C11.2029 17.5878 10.8 17.9908 10.8 18.4878V19.6878C10.8 20.1849 11.2029 20.5878 11.7 20.5878H23.1C23.5971 20.5878 24 20.1849 24 19.6878Z" fill="black"/>
</g>
<defs>
<clipPath id="clip0_13098_562">
<rect width="24" height="24" fill="white"/>
</clipPath>
</defs>
</svg>
