<svg width="24" height="24" viewBox="0 0 24 24" fill="none" xmlns="http://www.w3.org/2000/svg">
<g id="Ruby">
<path id="Vector" d="M2.77099 12.2181C2.89592 11.8272 3.0445 11.0303 3.39089 10.33C5.07643 6.92863 7.68377 4.45473 11.1656 2.95185C11.8375 2.66225 12.6373 2.5695 13.3792 2.56571C14.3067 2.56098 14.9285 3.20643 15.0099 4.14242C15.0525 4.62982 15.0468 5.17116 14.8793 5.61976C13.2297 10.0319 10.117 12.9866 5.74081 14.6466C5.57045 14.7109 5.38023 14.7279 5.19662 14.7526C3.70699 14.957 2.74828 14.1128 2.77099 12.2181ZM14.2234 8.94826C16.6424 8.77885 19.0207 8.61229 21.5126 8.4372C21.3309 8.26401 21.2287 8.15044 21.1104 8.0558C18.9412 6.31631 16.7664 4.58439 14.6058 2.83449C14.3919 2.6613 14.2594 2.38874 13.9736 2.01017C14.902 2.01017 15.6525 2.00166 16.403 2.01207C17.3087 2.02532 18.2362 1.9373 19.1163 2.10008C21.0195 2.45214 22.035 3.67963 21.9991 5.61408C21.966 7.42739 21.7786 9.23786 21.6442 11.0483C21.4388 13.8203 21.223 16.5924 21.0091 19.3634C20.9722 19.8414 20.9277 20.3193 20.8795 20.8871C19.8735 19.9909 18.911 19.1344 17.9504 18.277C17.8264 18.1662 17.7232 18.0233 17.586 17.9353C16.4115 17.1876 15.9213 16.0728 15.6544 14.7402C15.3061 12.9989 14.796 11.2897 14.3569 9.56626C14.3077 9.37319 14.2717 9.17634 14.2225 8.94637L14.2234 8.94826ZM5.15309 19.5499C5.67077 19.4779 6.15533 19.4477 6.61718 19.3284C6.79889 19.282 7.00993 19.0606 7.06861 18.8751C7.50396 17.4981 7.90334 16.1087 8.31502 14.7251C8.35099 14.604 8.40115 14.4866 8.4674 14.3059C10.9867 15.1122 13.4862 15.9128 16.0594 16.7362C14.7203 18.0877 13.2959 19.2205 11.7041 20.2389C14.5405 20.4556 17.3768 20.6723 20.2132 20.889C20.2132 20.925 20.2132 20.9619 20.2142 20.9979C19.6028 21.0414 18.9914 21.0868 18.38 21.1275C14.7723 21.3651 11.1656 21.6017 7.5579 21.8373C6.98438 21.8752 6.40991 21.9376 5.83734 21.9272C3.40887 21.8828 2.0328 20.5521 2.00157 18.1161C1.98358 16.7476 2.1246 15.3772 2.21167 14.0087C2.21829 13.9055 2.36593 13.8109 2.44827 13.7125C2.57035 13.8213 2.74828 13.9065 2.8079 14.0428C3.53285 15.7236 4.24076 17.4119 4.9534 19.0975C5.01113 19.2328 5.07265 19.3663 5.15309 19.5499Z" fill="#111827"/>
</g>
</svg>
