<svg width="24" height="24" viewBox="0 0 24 24" fill="none" xmlns="http://www.w3.org/2000/svg">
<g id="github-brands 1">
<path id="Vector" d="M7.77656 19.2531C7.77656 19.3469 7.66875 19.4219 7.53281 19.4219C7.37812 19.4359 7.27031 19.3609 7.27031 19.2531C7.27031 19.1594 7.37813 19.0844 7.51406 19.0844C7.65469 19.0703 7.77656 19.1453 7.77656 19.2531ZM6.31875 19.0422C6.28594 19.1359 6.37969 19.2437 6.52031 19.2719C6.64219 19.3187 6.78281 19.2719 6.81094 19.1781C6.83906 19.0844 6.75 18.9766 6.60938 18.9344C6.4875 18.9016 6.35156 18.9484 6.31875 19.0422ZM8.39062 18.9625C8.25469 18.9953 8.16094 19.0844 8.175 19.1922C8.18906 19.2859 8.31094 19.3469 8.45156 19.3141C8.5875 19.2812 8.68125 19.1922 8.66719 19.0984C8.65312 19.0094 8.52656 18.9484 8.39062 18.9625ZM11.475 1C4.97344 1 0 5.93594 0 12.4375C0 17.6359 3.27188 22.0844 7.94531 23.65C8.54531 23.7578 8.75625 23.3875 8.75625 23.0828C8.75625 22.7922 8.74219 21.1891 8.74219 20.2047C8.74219 20.2047 5.46094 20.9078 4.77188 18.8078C4.77188 18.8078 4.2375 17.4437 3.46875 17.0922C3.46875 17.0922 2.39531 16.3562 3.54375 16.3703C3.54375 16.3703 4.71094 16.4641 5.35312 17.5797C6.37969 19.3891 8.1 18.8687 8.77031 18.5594C8.87813 17.8094 9.18281 17.2891 9.52031 16.9797C6.9 16.6891 4.25625 16.3094 4.25625 11.8C4.25625 10.5109 4.6125 9.86406 5.3625 9.03906C5.24062 8.73438 4.84219 7.47812 5.48438 5.85625C6.46406 5.55156 8.71875 7.12188 8.71875 7.12188C9.65625 6.85938 10.6641 6.72344 11.6625 6.72344C12.6609 6.72344 13.6688 6.85938 14.6063 7.12188C14.6063 7.12188 16.8609 5.54688 17.8406 5.85625C18.4828 7.48281 18.0844 8.73438 17.9625 9.03906C18.7125 9.86875 19.1719 10.5156 19.1719 11.8C19.1719 16.3234 16.4109 16.6844 13.7906 16.9797C14.2219 17.35 14.5875 18.0531 14.5875 19.1547C14.5875 20.7344 14.5734 22.6891 14.5734 23.0734C14.5734 23.3781 14.7891 23.7484 15.3844 23.6406C20.0719 22.0844 23.25 17.6359 23.25 12.4375C23.25 5.93594 17.9766 1 11.475 1ZM4.55625 17.1672C4.49531 17.2141 4.50938 17.3219 4.58906 17.4109C4.66406 17.4859 4.77187 17.5188 4.83281 17.4578C4.89375 17.4109 4.87969 17.3031 4.8 17.2141C4.725 17.1391 4.61719 17.1062 4.55625 17.1672ZM4.05 16.7875C4.01719 16.8484 4.06406 16.9234 4.15781 16.9703C4.23281 17.0172 4.32656 17.0031 4.35938 16.9375C4.39219 16.8766 4.34531 16.8016 4.25156 16.7547C4.15781 16.7266 4.08281 16.7406 4.05 16.7875ZM5.56875 18.4562C5.49375 18.5172 5.52187 18.6578 5.62969 18.7469C5.7375 18.8547 5.87344 18.8687 5.93437 18.7938C5.99531 18.7328 5.96719 18.5922 5.87344 18.5031C5.77031 18.3953 5.62969 18.3813 5.56875 18.4562ZM5.03438 17.7672C4.95937 17.8141 4.95937 17.9359 5.03438 18.0438C5.10938 18.1516 5.23594 18.1984 5.29688 18.1516C5.37187 18.0906 5.37187 17.9688 5.29688 17.8609C5.23125 17.7531 5.10938 17.7063 5.03438 17.7672Z" fill="black"/>
</g>
</svg>
