<svg width="24" height="24" viewBox="0 0 24 24" fill="none" xmlns="http://www.w3.org/2000/svg">
<g id="terminal-solid 1" clip-path="url(#clip0_13136_801)">
<path id="Vector" d="M9.67432 12.8242L2.38645 20.1121C2.03496 20.4636 1.46511 20.4636 1.11366 20.1121L0.263607 19.2621C-0.0872808 18.9112 -0.0879557 18.3425 0.262107 17.9908L6.03794 12.1878L0.262145 6.38488C-0.0879182 6.03317 -0.0872432 5.46448 0.263645 5.1136L1.11366 4.26358C1.46515 3.9121 2.035 3.9121 2.38645 4.26358L9.67432 11.5514C10.0258 11.9029 10.0258 12.4727 9.67432 12.8242ZM24.0001 19.6878V18.4878C24.0001 17.9908 23.5971 17.5878 23.1001 17.5878H11.7C11.203 17.5878 10.8 17.9908 10.8 18.4878V19.6878C10.8 20.1849 11.203 20.5878 11.7 20.5878H23.1001C23.5971 20.5878 24.0001 20.1849 24.0001 19.6878Z" fill="#111827"/>
</g>
<defs>
<clipPath id="clip0_13136_801">
<rect width="24" height="24" fill="white"/>
</clipPath>
</defs>
</svg>
